<svg width="84" height="77" fill="none" xmlns="http://www.w3.org/2000/svg"><g clip-path="url(#clip0)"><path d="M44.947.935c-.265-.471-1.495-.829-2.974-.829-1.478 0-2.713.358-2.975.83h-.045v4.33h6.06V.935h-.066z" fill="#CD5929"/><path d="M18.056 75.563L29.4 58.869l-5.149-3.487-11.344 16.694-.318.466.05.034c-.497 1.24 0 2.764 1.236 3.612 1.234.848 2.84.74 3.813-.183l.05.035.318-.467v-.01z" fill="url(#paint0_linear)"/><path d="M65.186 75.563L53.842 58.869l5.151-3.487 11.344 16.694.318.466-.05.034c.5 1.24.013 2.764-1.232 3.612-1.246.848-2.843.74-3.813-.183l-.053.035-.32-.477z" fill="url(#paint1_linear)"/><path d="M65.186 75.563L53.842 58.869l5.151-3.487 11.344 16.694.318.466-.05.034c.5 1.24.013 2.764-1.232 3.612-1.246.848-2.843.74-3.813-.183l-.053.035-.32-.477z" fill="url(#paint2_linear)"/><path d="M38.624 59.72v10.885c0 .562 1.357 1.018 3.029 1.018s3.029-.456 3.029-1.018V59.719h-6.058z" fill="url(#paint3_linear)"/><path d="M79.808 5.175H4.134A3.948 3.948 0 00.186 9.123v46.895a3.948 3.948 0 003.948 3.948h75.674a3.948 3.948 0 003.948-3.948V9.123a3.948 3.948 0 00-3.948-3.948z" fill="#334D5C"/><path d="M77.243 8.339H6.699a3.55 3.55 0 00-3.55 3.55v41.362a3.55 3.55 0 003.55 3.551h70.544a3.55 3.55 0 003.55-3.55V11.89a3.55 3.55 0 00-3.55-3.551z" fill="#ECF0F0"/><path d="M50.94 23.18h-9.009v24.911c.058.884 2.046 1.593 4.505 1.593s4.433-.711 4.491-1.593l.014-24.91z" fill="#BD3E25"/><path d="M46.436 24.802c2.488 0 4.505-.73 4.505-1.632 0-.901-2.017-1.632-4.505-1.632s-4.505.73-4.505 1.632c0 .902 2.017 1.632 4.505 1.632z" fill="#D5614F"/><path d="M35.874 27.156h-9.01v20.933c.058.883 2.046 1.59 4.505 1.59s4.433-.71 4.491-1.59l.014-20.933z" fill="#3A9785"/><path d="M31.369 28.788c2.488 0 4.505-.731 4.505-1.632 0-.902-2.017-1.633-4.505-1.633s-4.505.731-4.505 1.633c0 .901 2.017 1.632 4.505 1.632z" fill="#45B39C"/><path d="M21.035 17.064h-9.01v31.02c.058.888 2.046 1.6 4.505 1.6s4.433-.714 4.491-1.6l.014-31.02z" fill="#238AB4"/><path d="M16.53 18.718c2.488 0 4.505-.73 4.505-1.632 0-.901-2.017-1.632-4.505-1.632s-4.505.73-4.505 1.632c0 .902 2.017 1.633 4.505 1.633z" fill="#2CA5D5"/><path d="M71.911 15.499H59.722v3.182h12.19V15.5zM71.911 20.539H59.722v2.92h12.19v-2.92zM67.931 25.544h-8.209v3.194h8.21v-3.194zM70.857 34.588h-6.095v3.972h6.095v-3.972z" fill="#BDBDBD"/><path d="M63.962 34.588h-4.24v3.972h4.24v-3.972z" fill="#BD3E25"/><path d="M70.857 39.628h-6.095V43.6h6.095v-3.972z" fill="#BDBDBD"/><path d="M63.962 39.628h-4.24V43.6h4.24v-3.972z" fill="#3A9785"/><path d="M70.857 44.398h-6.095v3.972h6.095v-3.972z" fill="#BDBDBD"/><path d="M63.962 44.398h-4.24v3.972h4.24v-3.972z" fill="#238AB4"/></g><defs><linearGradient id="paint0_linear" x1="20.923" y1="76.755" x2="20.923" y2="55.376" gradientUnits="userSpaceOnUse"><stop offset=".38" stop-color="#CD5929"/><stop offset=".8" stop-color="#9F431E"/></linearGradient><linearGradient id="paint1_linear" x1="721.74" y1="6398.99" x2="721.74" y2="4673.77" gradientUnits="userSpaceOnUse"><stop offset=".38" stop-color="#CD5929"/><stop offset=".8" stop-color="#9F431E"/></linearGradient><linearGradient id="paint2_linear" x1="62.32" y1="76.755" x2="62.32" y2="55.376" gradientUnits="userSpaceOnUse"><stop offset=".38" stop-color="#CD5929"/><stop offset=".8" stop-color="#9F431E"/></linearGradient><linearGradient id="paint3_linear" x1="41.653" y1="71.623" x2="41.653" y2="59.719" gradientUnits="userSpaceOnUse"><stop stop-color="#B44D23"/><stop offset="1" stop-color="#9F431E"/></linearGradient><clipPath id="clip0"><path fill="#fff" d="M0 0h84v76.845H0z"/></clipPath></defs></svg>