<svg width="136" height="80" fill="none" xmlns="http://www.w3.org/2000/svg"><g clip-path="url(#clip0)"><path d="M67.86 5.006a1.112 1.112 0 100-2.225 1.112 1.112 0 000 2.225z" fill="#4D4E50"/><path fill-rule="evenodd" clip-rule="evenodd" d="M123.346 76.76V3.954A4.022 4.022 0 00119.317 0H16.694c-2.183 0-3.761 1.77-3.761 3.953v72.808h110.413zM67.926 3.25a.632.632 0 110 1.265.632.632 0 010-1.265zm47.632 63.777H20.442V7.509h95.116v59.518z" fill="#060707"/><path d="M115.697 7.51H20.303v59.795h95.394V7.509z" fill="#FA565A"/><path opacity=".25" fill-rule="evenodd" clip-rule="evenodd" d="M109.022 24.335V59.31c0 .612-.401 1.18-1.013 1.18h-76.76a1.265 1.265 0 01-1.212-1.18V24.335h78.985zm-78.985.14v-5.492a1.268 1.268 0 011.212-1.183h76.76c.612 0 1.013.571 1.013 1.183v5.491H30.037z" fill="#4B1515"/><path fill-rule="evenodd" clip-rule="evenodd" d="M107.632 22.945V57.92c0 .611-.401 1.18-1.013 1.18H29.858a1.265 1.265 0 01-1.212-1.18V22.945h78.986z" fill="#fff"/><path fill-rule="evenodd" clip-rule="evenodd" d="M28.646 23.084v-5.492a1.267 1.267 0 011.212-1.183h76.761c.612 0 1.013.572 1.013 1.183v5.492H28.646z" fill="#CBCBCB"/><path d="M37.546 20.546a.939.939 0 100-1.877.939.939 0 000 1.877z" fill="#73CB00"/><path d="M34.626 20.546a.939.939 0 100-1.877.939.939 0 000 1.877z" fill="#FFD800"/><path d="M31.706 20.546a.939.939 0 100-1.877.939.939 0 000 1.877z" fill="#ED6464"/><path fill-rule="evenodd" clip-rule="evenodd" d="M74.536 41.44H38.658v-1.113h35.878v1.113zM74.536 43.943H38.658V42.83h35.878v1.113zM74.536 46.168H38.658v-1.113h35.878v1.113zM74.536 48.393H38.658V47.28h35.878v1.113zM74.536 50.617H38.658v-1.112h35.878v1.112z" fill="#9E9E9E"/><path fill-rule="evenodd" clip-rule="evenodd" d="M45.055 31.427h-6.397v6.397h6.397v-6.397zm-1.669 1.67h-3.059v3.058h3.06v-3.059z" fill="#00BAFF"/><path fill-rule="evenodd" clip-rule="evenodd" d="M50.896 34.765h-3.06v3.06h3.06v-3.06zm-.835.834h-1.39v1.39h1.39V35.6zM56.736 34.765h-3.06v3.06h3.06v-3.06zm-.834.834h-1.39v1.39h1.39V35.6zM97.898 41.44H79.82v-1.113h18.078v1.113zM97.898 43.943H79.82V42.83h18.078v1.113zM97.898 46.168H79.82v-1.113h18.078v1.113zM97.898 48.393H79.82V47.28h18.078v1.113zM97.898 50.617H79.82v-1.112h18.078v1.112zM82.88 35.043h-3.06v2.781h3.06v-2.781zm-.835.834h-1.39v1.113h1.39v-1.113zM88.72 35.043h-3.06v2.781h3.06v-2.781zm-.835.834h-1.39v1.113h1.39v-1.113z" fill="#9E9E9E"/><path fill-rule="evenodd" clip-rule="evenodd" d="M.148 76.065v.755c0 .044-.052.08.026.08a14.198 14.198 0 007.516 2.225h120.648a14.199 14.199 0 007.516-2.225h.014v-.835H.147z" fill="#939393"/><path fill-rule="evenodd" clip-rule="evenodd" d="M77.638 73.006a1.53 1.53 0 01-1.573 1.39H60.094a1.53 1.53 0 01-1.573-1.39H.139v3.536a.08.08 0 00.1.08H135.86v-3.616H77.638z" fill="#BFBFBF"/><path fill-rule="evenodd" clip-rule="evenodd" d="M77.873 73.006c0 .691-.56 1.53-1.251 1.53H59.656c-.69 0-1.251-.839-1.251-1.53h19.468z" fill="#939393"/><path opacity=".25" fill-rule="evenodd" clip-rule="evenodd" d="M72.31 0h47.007a4.018 4.018 0 014.029 3.953l-.139 63.908S70.127 0 72.311 0z" fill="url(#paint0_linear)"/></g><defs><linearGradient id="paint0_linear" x1="123.346" y1="3.484" x2="72.25" y2="64.377" gradientUnits="userSpaceOnUse"><stop stop-color="#fff"/><stop offset="1" stop-color="#fff" stop-opacity="0"/></linearGradient><clipPath id="clip0"><path fill="#fff" d="M0 0h136v79.264H0z"/></clipPath></defs></svg>