<svg id="colors-image" width="360" height="208" fill="none" viewBox="0 0 360 208" role="img" focusable="false" aria-labelledby="color-image__title"><title id="color-image__title">Красочная иллюстрация логотипа «Нёрдс»</title><path fill="#fff" d="M0 0h360v208H0z"/><path fill="#3CBC71" d="M113 187.5a20.5 20.5 0 11-41 0 20.5 20.5 0 0141 0zM295 115.26a23 23 0 11-46 0 23 23 0 0146 0zM15 93.26l19 1v7l-19-1v-7zM160.8 51l12.5 14.97-5.53 4.51-12.5-14.96L160.8 51zM331.54 129.72l18.17 5.84-2.18 6.8-18.18-5.84 2.19-6.8zM261.54 75.43l73.04-21.49 2.07 7.04-73.04 21.49-2.07-7.04zM223.5 157.76l.5-7.5-9.5 1 9 6.5z"/><path fill="#EFC94A" d="M172 120.5a31.5 31.5 0 11-63 0 31.5 31.5 0 0163 0z"/><path fill="#EFC94A" d="M117.67 164.48l43.18-22.75 3.5 6.64-43.18 22.75-3.5-6.64zM331 107h29v7h-29v-7zM62.86 56.65l40.69 14.4-2.53 7.12-40.68-14.4 2.52-7.12z"/><path fill="#EB575E" d="M254 38c0 20.99-16.79 38-37.5 38S179 58.99 179 38s16.79-38 37.5-38S254 17.01 254 38zM246 141.62l55.98 10.5-1.43 7.61-55.98-10.5 1.43-7.61zM.37 126.69l28.04-5.76 1.63 7.92-28.05 5.76-1.62-7.92zM80 16c-.5.5-4 4-4 5l1 2v8.5c.5 5.5 6 8.5 10 8 6-1.5 7.83-2.83 10.5-3.5 4.83 5.67 13 16.25 15.5 17.5 1 .5 4-3 7.5-3 3 2-.83 13.24 4 16 4.5 3.6 6.17 2 8 2 4 .17 12 1.5 12 5.5 0 5 1 7.5 4 8 2-2 3.5-5 3.5-5.5 0 0-1.5-2.5-1-10 0-4-3.84-7.48-8-8.5-4.62-1.13-8 4.5-13.5 3.5-.5-6-.5-12-2.5-14-2.55-3.02-6-5.5-9.5-3-2.7 2.7-9.5-17.5-21-15.5-1.97.34-6 2-11 3.5C83 32.5 84 21.75 84 21c0-.5-2.5-4.5-4-5z"/><path fill="#009DE0" d="M231 168.5a18.5 18.5 0 11-37 0 18.5 18.5 0 0137 0zM119 42.5a13.5 13.5 0 11-27 0 13.5 13.5 0 0127 0z"/><use xlink:href="#nerds-logo" width="236" height="96" fill="black" y="39" x="62"></use></svg>