<svg xmlns="http://www.w3.org/2000/svg" fill="none" viewBox="0 0 264 90"><g clip-path="url(#clip0)"><path fill="#000" d="M109.6 65.2c-.4.2-1 .3-1.4.3-.8 0-1.5-.3-1.5-1.5v-7.3c0-6-3.6-8.8-9.3-8.8-3.3 0-6.2.8-7.8 1.3v4.2a18 18 0 017.3-1.6c3.5 0 5.3 1.8 5.3 4.3v.7a27 27 0 00-5.3-.6c-4.2 0-9 1.6-9 6.8 0 4.2 3.4 6.3 7 6.3 3.3 0 5.8-1 7.7-2.7.8 1.7 2.2 2.4 4.1 2.4 1 0 2-.2 2.9-.5v-3.3zm-7.4-1.9a8.3 8.3 0 01-5.9 2.4c-2 0-3.8-1-3.8-3 0-2.5 2.7-3.3 5.3-3.3 1.5 0 3.2.3 4.4.5v3.4zm20.2 6c2.6 0 4.8-.5 6.7-1.4v-4.2c-1.6.9-3.8 1.5-6 1.5-3.6 0-7-2-7-6.6 0-4.8 3.6-6.7 7.2-6.7 2 0 4.1.6 5.6 1.7v-4.2c-1.8-1-4-1.5-6.3-1.5-5.4 0-11.2 3.3-11.2 10.8 0 7.3 5.6 10.6 11 10.6zm18.6-13c-4.2 0-9 1.5-9 6.7 0 4.2 3.4 6.3 7 6.3 3.2 0 5.7-1 7.7-2.7.7 1.7 2.2 2.4 4 2.4 1 0 2-.2 3-.5v-3.3l-1.4.3c-.8 0-1.5-.3-1.5-1.5v-7.3c0-6-3.6-8.8-9.4-8.8-3.3 0-6.2.8-7.8 1.3v4.2a18 18 0 017.3-1.6c3.5 0 5.4 1.8 5.4 4.3v.7c-1.6-.3-3.6-.6-5.3-.6zm5.3 7a8.3 8.3 0 01-6 2.4c-2 0-3.7-1-3.7-3 0-2.5 2.7-3.3 5.3-3.3 1.4 0 3.1.3 4.4.5v3.4zm9.2-4.7c0 5.8 3.9 10.7 10 10.7 3.8 0 6.2-1.8 7.8-3.8v3.2h4V39.1h-4.5v12a9.4 9.4 0 00-7.3-3.2c-6.1 0-10 4.8-10 10.7zm17.3-2.5v5a7 7 0 01-6.5 4.2c-3.6 0-6.3-2.8-6.3-6.7 0-4 2.7-6.8 6.3-6.8a7 7 0 016.5 4.3zm20.5 13.2c2.8 0 5.4-.5 7.2-1.4v-4c-1.7 1-4 1.5-6.4 1.5-3.7 0-7.3-1.5-7.8-5.1h15.3c1.3-6-1.5-12.4-9.6-12.4-4.7 0-10.2 3.3-10.2 10.7 0 7.1 5.2 10.7 11.5 10.7zm-1-17.7c4.4 0 5.5 3.5 5.2 5.3h-11.2c.2-3.5 3-5.3 6-5.3zm41.3 4.6v12.5h4.5V56c0-4.2-2.3-8.1-7.7-8.1a10 10 0 00-7 3.2c-1.3-2-3.4-3.2-6.4-3.2a9.3 9.3 0 00-6.8 3v-2.5h-4v20.3h4.5V55c1-1.3 3-3.1 5.4-3.1 2.4 0 4 1.6 4 4.3v12.5h4.5V56v-1.4c1-1.2 2.7-2.7 5-2.7 2.4 0 4 1.6 4 4.3zm29.2-7.8H258l-6 15.3-7-15.3h-4.8L250 69l-.4 1c-1.2 3.2-2.9 4.7-5 4.7a7 7 0 01-2.1-.3v3.9c.9.2 1.7.3 2.6.3 3.1 0 6-1.8 8.2-7l9.5-23zm-169-28.7c1.2-1.6 3.2-3.3 5.7-3.3 2.7 0 4.8 1.5 4.8 4.8v12h4.5V20.6c0-4.8-3.3-8.3-8.4-8.3-2.7 0-5 1.3-6.5 2.8V3.6h-4.6v29.6H94V19.7zm22.9 7.3c0 4.7 3 6.7 7 6.7 2 0 3.9-.3 5.4-.9v-3.9a11 11 0 01-4 .8c-2.7 0-4-.9-4-3.5v-9.3h7.4v-4h-7.3V5.7l-4.5 1V13H113v4h3.6V27zm22.1-7.5c1.1-1.4 3-3.1 5.4-3.1 2.5 0 4 1.6 4 4.2v12.6h4.5V20.5v-1.4c1-1.3 2.8-2.7 5-2.7 2.4 0 4 1.6 4 4.2v12.6h4.5V20.5c0-4.2-2.3-8.2-7.7-8.2a10 10 0 00-7 3.3c-1.2-2-3.4-3.3-6.4-3.3a9.3 9.3 0 00-6.8 3.1V13h-4v20.3h4.5V19.5zm34-15.9h4.6v29.6h-4.6V3.6zM35.8.1L.4 3.8v65l35.4 21 35.4-21v-65L36.2 0h-.4zm30.8 66L35.8 84.4 5 66V39.5l30.6 18.2.1 3.3-21-12.5v3.2l21 12.7.1 3.4-21.1-12.6v3.2l21 12.7 21.4-12.7V44.7l9.5-5.7v27zm0-30.5l-8.5 5-3.9 2.2-18.5-11V35l15.8 9.4-.1.1-.4.2-2.2 1.3-13.1-7.8v3.3L46 47.6l-2.5 1.6-7.8-4.5v3.2l5 3-5.1 3.1L5 36l30.5-18.4 31 18zm0-3.3l-31-18.2L5 32.3V8l30.8-3.3L66.6 8v24.3z"/></g><defs><clipPath id="clip0"><path fill="#fff" d="M.4 0h262.8v90H.4z"/></clipPath></defs></svg>