<svg xmlns="http://www.w3.org/2000/svg" fill="none" viewBox="0 0 303 193">
  <defs/>
  <g filter="url(#filter0_f)">
    <path fill="url(#paint0_linear)" d="M300 157l-155 33c57-50.5 86-83.5 86-83.5s44.5 23 69 50.5z"/>
  </g>
  <path fill="#fff" fill-rule="evenodd" d="M215.5 142a77.4 77.4 0 10-59.7 11.2L144 190l71.5-48z" clip-rule="evenodd"/>
  <g filter="url(#filter1_i)">
    <path fill="url(#paint1_linear)" d="M215.6 79.9l-2 .2c-1.4 10.2-14.4 11.8-14.7 3.9-.2-3.6 6.3-4.7 12.8-5.3.2-6.5-8.7 3.3-11.8-2.7-2.8-5.3 8-10.5 9.1-9.4 3.6 3.3 1.9 3.8-.7 4.8-5.2 2-3.2 2.4-2.5 2.2 4.2-1.3 7.9-.6 7.9 4.9l2-.2c1.3-.1 1.4 1.4 0 1.6zm-4 .4c-5.1.6-9.4 1.4-9 3.1 1 3.3 7.5 4 9-3zm-18-3c-.4 0-.4-3.6 0-6.9.6-4 6.6-2 5-1-1.6.8-2.4 5-3.4 7-.4.7-1.5.9-1.7.9zm-41.5-14c1.3 2.8-2.7 4.8-4.6 2.6-.7-.9-.4-2.6 1.5-3.6 1-.5 2.2-1 3 1zm8.2-1.3c1.4 3.1-3 5.2-5 3-.8-1-.4-3 1.6-4 1-.6 2.5-1 3.4 1zm-15.5 25c-4.3 3.2-7.8 2.5-6.7-6.3.8-6.4-.5-6.7-1.7-5.5-1.5 1.6-2.5 5.7-2.5 9.6l.5 2.8c.2 1-2.7 2-4.4.6-.5-.5-1-5.1-1-11.4 0-5.2.6-8.7 1.2-8.9 4.4-1.2 5.1.8 4.2 4.7-.4 1.5-.7 3-.8 4.6 1-2.7 2.3-5 3.7-6 4.1-2.6 7.5-1.4 6.9 4-1.1 9.7-1.2 11-.2 10.3 1.2-1 2 .7.8 1.6zm14.4-1.2c-1.2 2-4.3 3-7.3 2.7-4.2-.5-6.9-4.5-5.9-10.6 1.1-6.5 10-10.7 12.8-6 2 3.4-1.2 9.3-6.4 11.5l-.3.1c1 3 3.6 4.4 6 1.4 1.2-1.4 2-.8 1 1zm-7.5-4.3c3.2-2.4 4.3-7.8 3.4-9.3-1-1.6-2.8.9-3.4 6.9v2.4zm22.9-4.2a6.8 6.8 0 01-3.3 3c-1.3.4-2.8 0-2.8-1.6 0-.6.4-2 2-2.8-.1-1-.8-1.4-1.3-1-1.8 1.6-4 7.2-3.5 11.3v.3l.3 1c.3 1-2.6 2-4.3.6-.6-.4-1-4-1-10.3 0-5.2 1.2-9.8 1.7-10 3.6-1 5.6.8 4.5 4.3-.6 2-1.2 4-1.6 6 1.4-3.8 3.6-7.4 5.4-8.4 3.2-1.7 5.6.6 4.9 4.6v.2l-.3 1-.7 1.8z"/>
    <path fill="url(#paint2_linear)" d="M191 66.3a53.8 53.8 0 00-.2 17.8c.4 1.3 2 3 3.4 1.2 1.5-1.9 3.2-.8 1.1 1.4a7.6 7.6 0 01-6 2c-1.7-.2-2.8-1.4-3.4-3.2l-.8 1.4a5 5 0 01-4.4 1.8c-3.6-.5-5.8-4.7-4.8-10.6 1.1-6.3 6.2-8.6 9.2-7l.2-2.4v-.5l-2.7.6c-13.1 2.3-8.6-9.1-5.4-12 3.7-3.4 4-1.2 3-.4-2.1 1.4-3 9.3 2.8 9.3 1 0 1.8 0 2.7-.2 1.8-10.7 7.3-15.9 11.7-14.2 5 2 4.4 10.3-6.3 15zm-5.9 14.3v-7.7c-1.9-.9-3.7 2.1-4.2 6.3-.5 4.9 1.6 7.5 2.7 6.3 1-1 1.4-4 1.5-5zm13.2-25.3c-1-1.5-4.5.4-6.6 8.4 5.2-2.7 7.3-7.3 6.6-8.4z"/>
  </g>
  <defs>
    <linearGradient id="paint0_linear" x1="175" x2="271" y1="172" y2="99" gradientUnits="userSpaceOnUse">
      <stop stop-color="#565656"/>
      <stop offset="1" stop-color="#fff" stop-opacity="0"/>
    </linearGradient>
    <linearGradient id="paint1_linear" x1="172.8" x2="172.8" y1="51" y2="89" gradientUnits="userSpaceOnUse">
      <stop stop-color="#959595"/>
      <stop offset="1" stop-color="#1B1C1C"/>
    </linearGradient>
    <linearGradient id="paint2_linear" x1="172.8" x2="172.8" y1="51" y2="89" gradientUnits="userSpaceOnUse">
      <stop stop-color="#959595"/>
      <stop offset="1" stop-color="#1B1C1C"/>
    </linearGradient>
    <filter id="filter0_f" width="161" height="89.5" x="142" y="103.5" color-interpolation-filters="sRGB" filterUnits="userSpaceOnUse">
      <feFlood flood-opacity="0" result="BackgroundImageFix"/>
      <feBlend in="SourceGraphic" in2="BackgroundImageFix" result="shape"/>
      <feGaussianBlur result="effect1_foregroundBlur" stdDeviation="1.5"/>
    </filter>
    <filter id="filter1_i" width="87.7" height="38" x="129" y="51" color-interpolation-filters="sRGB" filterUnits="userSpaceOnUse">
      <feFlood flood-opacity="0" result="BackgroundImageFix"/>
      <feBlend in="SourceGraphic" in2="BackgroundImageFix" result="shape"/>
      <feColorMatrix in="SourceAlpha" result="hardAlpha" values="0 0 0 0 0 0 0 0 0 0 0 0 0 0 0 0 0 0 127 0"/>
      <feOffset dx="1" dy="1"/>
      <feComposite in2="hardAlpha" k2="-1" k3="1" operator="arithmetic"/>
      <feColorMatrix values="0 0 0 0 0 0 0 0 0 0 0 0 0 0 0 0 0 0 0.29 0"/>
      <feBlend in2="shape" result="effect1_innerShadow"/>
    </filter>
  </defs>
</svg>
